<svg width="10" height="3" viewBox="0 0 10 3" fill="none" xmlns="http://www.w3.org/2000/svg">
<path d="M1.10127 2.084C0.849274 2.084 0.62994 1.99533 0.443274 1.818C0.26594 1.63133 0.177274 1.412 0.177274 1.16C0.177274 0.908 0.26594 0.693333 0.443274 0.516C0.62994 0.329333 0.849274 0.236 1.10127 0.236C1.35327 0.236 1.56794 0.329333 1.74527 0.516C1.93194 0.693333 2.02527 0.908 2.02527 1.16C2.02527 1.412 1.93194 1.63133 1.74527 1.818C1.56794 1.99533 1.35327 2.084 1.10127 2.084ZM4.99776 2.084C4.74576 2.084 4.52642 1.99533 4.33976 1.818C4.16242 1.63133 4.07376 1.412 4.07376 1.16C4.07376 0.908 4.16242 0.693333 4.33976 0.516C4.52642 0.329333 4.74576 0.236 4.99776 0.236C5.24976 0.236 5.46442 0.329333 5.64176 0.516C5.82842 0.693333 5.92176 0.908 5.92176 1.16C5.92176 1.412 5.82842 1.63133 5.64176 1.818C5.46442 1.99533 5.24976 2.084 4.99776 2.084ZM8.89424 2.084C8.64224 2.084 8.42291 1.99533 8.23624 1.818C8.05891 1.63133 7.97024 1.412 7.97024 1.16C7.97024 0.908 8.05891 0.693333 8.23624 0.516C8.42291 0.329333 8.64224 0.236 8.89424 0.236C9.14624 0.236 9.36091 0.329333 9.53824 0.516C9.72491 0.693333 9.81824 0.908 9.81824 1.16C9.81824 1.412 9.72491 1.63133 9.53824 1.818C9.36091 1.99533 9.14624 2.084 8.89424 2.084Z" fill="#707070"/>
</svg>
