<svg width="40" height="40" viewBox="0 0 40 40" fill="none" xmlns="http://www.w3.org/2000/svg">
<path fill-rule="evenodd" clip-rule="evenodd" d="M20.0002 -0.000244141C8.96024 -0.000244141 0.000244141 8.95976 0.000244141 19.9998C0.000244141 31.0398 8.96024 39.9998 20.0002 39.9998C31.0402 39.9998 40.0002 31.0398 40.0002 19.9998C40.0002 8.95976 31.0402 -0.000244141 20.0002 -0.000244141ZM19.9999 5.99976C23.3199 5.99976 25.9999 8.67976 25.9999 11.9998C25.9999 15.3198 23.3199 17.9998 19.9999 17.9998C16.6799 17.9998 13.9999 15.3198 13.9999 11.9998C13.9999 8.67976 16.6799 5.99976 19.9999 5.99976ZM7.99992 27.9596C10.5799 31.8396 14.9999 34.3996 19.9999 34.3996C24.9999 34.3996 29.4199 31.8396 31.9999 27.9596C31.9399 23.9796 23.9799 21.7996 19.9999 21.7996C15.9999 21.7996 8.05992 23.9796 7.99992 27.9596Z" fill="#9C9C9C"/>
</svg>
